<?xml version="1.0" encoding="UTF-8" standalone="no"?>
<!-- Created with Inkscape (http://www.inkscape.org/) -->

<svg
   xmlns:dc="http://purl.org/dc/elements/1.1/"
   xmlns:cc="http://creativecommons.org/ns#"
   xmlns:rdf="http://www.w3.org/1999/02/22-rdf-syntax-ns#"
   xmlns:svg="http://www.w3.org/2000/svg"
   xmlns="http://www.w3.org/2000/svg"
   xmlns:sodipodi="http://sodipodi.sourceforge.net/DTD/sodipodi-0.dtd"
   xmlns:inkscape="http://www.inkscape.org/namespaces/inkscape"
   version="1.1"
   id="svg4596"
   width="488.66595"
   height="466.48553"
   viewBox="0 0 488.66595 466.48553"
   sodipodi:docname="SciCatLogo.svg"
   inkscape:version="0.92.2 5c3e80d, 2017-08-06"
   inkscape:export-filename="/Users/tobiasrichter/Google Drive/ESS/Tobias/DataCuration/scicatlogo.png"
   inkscape:export-xdpi="52.330002"
   inkscape:export-ydpi="52.330002">
  <metadata
     id="metadata4602">
    <rdf:RDF>
      <cc:Work
         rdf:about="">
        <dc:format>image/svg+xml</dc:format>
        <dc:type
           rdf:resource="http://purl.org/dc/dcmitype/StillImage" />
        <dc:title />
      </cc:Work>
    </rdf:RDF>
  </metadata>
  <defs
     id="defs4600" />
  <sodipodi:namedview
     pagecolor="#ffffff"
     bordercolor="#666666"
     borderopacity="1"
     objecttolerance="10"
     gridtolerance="10"
     guidetolerance="10"
     inkscape:pageopacity="0"
     inkscape:pageshadow="2"
     inkscape:window-width="1434"
     inkscape:window-height="823"
     id="namedview4598"
     showgrid="false"
     inkscape:zoom="0.44"
     inkscape:cx="177.78961"
     inkscape:cy="386.86282"
     inkscape:window-x="0"
     inkscape:window-y="23"
     inkscape:window-maximized="0"
     inkscape:current-layer="svg4596"
     fit-margin-top="15"
     fit-margin-left="15"
     fit-margin-right="15"
     fit-margin-bottom="15">
    <inkscape:grid
       type="xygrid"
       id="grid4580" />
  </sodipodi:namedview>
  <path
     inkscape:connector-curvature="0"
     id="path4612"
     d="m 264.81889,409.4102 c 2.48616,-7.24714 3.58456,-13.26683 3.58456,-19.64504 v -5.75788 l -15.64902,-15.69854 -15.64901,-15.69853 46.14901,0.17048 c 25.38196,0.0938 46.52402,0.30935 46.98235,0.47907 1.01049,0.37421 1.15666,7.40527 0.16667,8.01712 -0.36667,0.22661 -0.66667,1.138 -0.66667,2.0253 0,1.84366 -2.78433,10.59893 -4.70691,14.80076 -0.7112,1.55434 -1.29309,2.99531 -1.29309,3.20215 0,1.28506 -6.93121,10.61563 -10.64343,14.32786 -6.48227,6.48227 -19.17589,14.64393 -22.77533,14.64393 -0.64307,0 -1.33414,0.26685 -1.53571,0.593 -0.57708,0.93374 -11.24824,2.54128 -20.16114,3.03716 l -5.44895,0.30316 z"
     style="fill:#04fbfc;stroke-width:0.66666669"
     inkscape:label="blue" />
  <path
     inkscape:connector-curvature="0"
     id="path4610"
     d="m 69.34752,413.89997 c -3.98165,-1.25728 -6.89487,-2.87324 -10.27741,-5.70089 -3.24448,-2.71225 -7.58516,-9.26557 -7.22338,-10.90547 0.20298,-0.92008 22.36482,-22.67218 46.30286,-45.44678 l 9.41282,-8.95534 h 35.5984 35.59841 l 26.48878,26.51938 26.48878,26.51938 v 1.53431 c 0,1.93667 -4.03492,8.06747 -7.05427,10.71849 -2.71014,2.37954 -7.08815,4.47122 -12.07986,5.77139 l -3.59759,0.93705 -68.46747,-0.0659 -68.46748,-0.0659 z"
     style="fill:#fd0303;stroke-width:0.66666669"
     inkscape:label="red" />
  <path
     id="path4719"
     style="fill:#737373;fill-opacity:1;stroke-width:0.66666669"
     d="m 219.07011,431.31305 c 15.49116,-5.90487 27.74043,-20.83916 29.67698,-36.18212 l 0.40888,-3.23944 -42.87626,-42.82052 -42.87626,-42.82051 -10.33334,-0.17949 -10.33333,-0.17948 v -8.33333 -8.33333 l 7.10322,-0.18858 7.10322,-0.18858 0.75122,-0.90516 c 0.49195,-0.59277 0.68641,-3.74882 0.56345,-9.14476 l -0.18778,-8.23959 -7.66666,-0.33333 -7.66667,-0.33334 v -8.66666 -8.66667 l 7.66667,-0.33333 7.66666,-0.33334 0.18778,-8.23959 c 0.12296,-5.39594 -0.0715,-8.55199 -0.56345,-9.14476 l -0.75122,-0.90516 -7.10322,-0.18857 -7.10322,-0.18858 v -8.33334 -8.33333 l 6.9615,-0.19141 c 3.82882,-0.10526 7.35382,-0.517 7.83333,-0.91496 l 0.87184,-0.72356 v -7.83674 -7.83674 l -0.87184,-0.72356 c -0.47951,-0.39796 -4.00451,-0.80969 -7.83333,-0.91496 l -6.9615,-0.1914 v -8.33334 -8.33333 l 7.13641,-0.33333 c 3.92502,-0.18334 7.44483,-0.64314 7.82178,-1.02179 0.42449,-0.42639 0.75322,-7.27818 0.8636,-18 l 0.17821,-17.31155 10.36591,-0.33333 10.36592,-0.33333 1.79146,-1.17596 c 5.9843,-3.92819 5.47704,-12.7695 -0.91559,-15.95869 l -2.27437,-1.13465 -38,-0.0295 -38,-0.0295 -2.33333,1.39321 c -3.66493,2.18839 -4.63516,3.82193 -4.65184,7.83216 l -0.0148,3.56375 1.37969,1.9376 c 0.75884,1.06569 2.03384,2.312 2.83334,2.76958 l 1.45361,0.832 19.33333,0.33333 19.33334,0.33333 v 8.66667 8.66667 l -7.95849,0.1889 c -4.46836,0.10606 -8.34215,0.50732 -8.83333,0.91496 l -0.87485,0.72606 v 69.00326 69.00326 l -22.5,23.07891 c -12.375,12.6934 -32.175,32.86543 -44,44.82675 l -21.5,21.74784 v 3.31159 c 0,7.85219 5.38259,18.90949 12.83333,26.36313 2.84167,2.84276 5.44674,5.16867 5.78904,5.16867 0.3423,0 2.0673,0.89719 3.83333,1.99375 9.65313,5.99379 7.87629,5.87766 88.21097,5.76485 l 69.66666,-0.0978 z M 70.73678,450.53007 C 54.46366,448.47468 44.29333,443.0097 32.54371,430.00719 22.474627,418.86444 17.42208,407.54051 15.75346,392.3764 L 15,385.52912 l 1.325787,-1.81881 c 0.72918,-1.00035 21.144953,-21.61796 45.368383,-45.81692 l 44.04261,-43.99811 v -65.84952 -65.84952 l -1.5,-0.5701 c -0.825,-0.31355 -2.9269,-0.90648 -4.67089,-1.31761 -17.50402,-4.12642 -25.47281,-22.11814 -17.41508,-39.31925 3.81532,-8.14467 12.74118,-13.00339 25.58597,-13.92751 l 7,-0.50361 0.17756,-17.409333 0.17756,-17.40933 -0.90537,-0.75139 -0.90537,-0.75139 -35.27219,-0.17261 -35.27219,-0.17262 v -8.33333 -8.33333 h 44.66667 44.66666 l 0.33334,26.66666 0.33333,26.666673 h 9 9.375 l -0.0152,-5.83334 c 0.3358,-12.049932 -1.70615,-28.106611 0.82071,-37.121617 1.17827,-4.203686 2.50153,-7.513543 4.82702,-10.186551 2.3255,-2.673008 7.24475,-4.898978 9.60171,-5.915009 7.23761,-3.119974 18.33085,-1.549347 25.02658,1.100506 6.69573,2.649854 11.43019,13.606483 12.05017,18.310738 0.30999,2.352128 0.73303,7.082025 1.13858,9.87999 0.53302,3.677405 0.89882,6.239186 3.35154,7.715543 2.45272,1.476357 5.22644,2.343041 9.0938,1.716038 3.86735,-0.627003 4.8007,-1.523071 6.86329,-4.158226 2.06259,-2.635155 2.54898,-6.72531 2.21626,-12.307237 -0.33272,-5.581927 -0.56282,-24.655525 -0.63721,-32.442134 -0.0744,-7.786609 10.72323,-19.728121 25.18515,-19.750987 11.45559,-0.01813 20.85492,6.426246 25.27081,17.32612 l 1.48548,3.666666 0.007,42.999997 0.007,43.000003 h -8.66666 -8.66667 L 259.7378,82.558657 259.40446,40.55866 c -1.6862,-3.809085 -3.61974,-4.572646 -5.66441,-4.963723 -2.9661,-0.601993 -7.7992,-0.303766 -9.51011,2.745799 -1.71091,3.049565 -1.76829,8.00574 -1.8113,12.576356 -0.043,4.570616 0.2898,7.070031 0.3894,16.012792 0.0996,8.942761 -0.83278,17.526702 -3.7727,21.818038 -2.93992,4.291336 -6.65607,7.459316 -12.60694,9.544103 -5.95088,2.084785 -13.45754,2.747095 -18.76204,1.741395 -2.65225,-0.502851 -5.4433,-1.241349 -8.10664,-2.801957 -2.66333,-1.560608 -4.12826,-2.04768 -7.3403,-7.734614 -3.21204,-5.686934 -2.57792,-13.466391 -3.73953,-18.617628 -1.16161,-5.151237 -3.77751,-7.405165 -7.28651,-8.145843 -3.509,-0.740677 -6.29062,-0.514743 -8.79971,1.519022 -2.5091,2.033766 -3.3911,3.207041 -3.43862,7.948516 -0.0475,4.741474 0.14475,13.526344 0.25242,30.857534 l 0.19606,3.49971 7,0.50361 c 15.77826,1.13517 24.30922,7.5221 27.92534,20.90707 3.03494,11.23377 -3.28902,25.30317 -13.40841,29.83073 -5.87229,2.62736 -7.18449,3.09192 -8.7333,3.09192 -0.81783,0 -2.15371,0.46702 -2.96863,1.0378 l -1.48167,1.03781 v 65.11471 65.1147 l 6.76527,6.68082 c 3.7209,3.67446 24.1209,24.10688 45.33333,45.40539 l 38.56807,38.72456 v 5.73185 c 0,10.05565 -3.14075,21.08985 -8.44786,29.67936 -5.66004,9.1607 -19.14324,21.69914 -27.55346,25.62278 -13.90368,6.48652 -14.54932,6.53191 -91.33202,6.42198 l -63.66666,-0.0911 z"
     inkscape:label="left"
     inkscape:connector-curvature="0"
     sodipodi:nodetypes="cccccccccccccccccccccccccccccccccscccccsccccscccccccccccccsccccsscscsssccccsccsccccscsccccccccccccccccssszsszzzzzcccccccccczzzzzsszzzzsccsscscccccscscsscc" />
  <path
     style="fill:#737373;fill-opacity:1;stroke-width:0.66666669"
     d="m 264.40345,450.46906 c -4.30487,-0.54727 -17.4699,-4.49108 -17.79176,-5.32983 -0.34394,-0.89628 9.81903,-11.31448 12.30276,-12.61172 l 1.511,-0.78919 3.82233,0.90034 c 9.22846,2.17373 27.88887,-1.4651 41.40686,-8.07446 26.20139,-12.81067 44.74881,-42.5734 44.74881,-71.80766 0,-21.25985 -8.00986,-41.77133 -22.25103,-56.97996 -11.48659,-12.26693 -23.32522,-18.89854 -42.08231,-23.57314 -3.3,-0.82242 -6.52322,-1.94894 -7.16272,-2.50338 l -1.16272,-1.00808 -0.17061,-53.40024 -0.17061,-53.40025 h -8.66667 -8.66667 l -0.17066,53.63734 c -0.0939,29.50052 -0.4123,53.87896 -0.70764,54.1743 -0.29534,0.29534 -2.76854,1.13316 -5.496,1.86182 -8.84413,2.36277 -10.21482,2.8061 -15.6257,5.05383 -7.27836,3.0235 -12.6035,5.95135 -17.2092,9.46187 -4.47771,3.41297 -15.53783,14.2106 -17.54832,17.13186 l -1.36799,1.9877 -1.63533,-0.74512 c -1.60886,-0.73304 -11.35901,-9.2982 -11.79657,-10.36285 -0.55245,-1.34419 11.65794,-14.60237 18.55741,-20.14985 8.1015,-6.51396 18.25224,-12.18935 28.3011,-15.82344 2.9156,-1.05441 5.53717,-2.28694 5.82572,-2.73895 0.28855,-0.45201 0.45306,-21.67184 0.36558,-47.15517 l -0.15906,-46.33334 -7.95849,-0.1889 c -4.58161,-0.10876 -8.33807,-0.50393 -8.85307,-0.93134 l -0.89458,-0.74244 0.1864,-8.06866 0.1864,-8.06866 h 44.66667 44.66667 v 8.66667 8.66667 l -7.95849,0.1889 c -4.46836,0.10606 -8.34215,0.50732 -8.83333,0.91496 l -0.87485,0.72606 v 45.81505 45.81504 l 1.16667,0.98487 c 0.64166,0.54168 2.51666,1.38148 4.16666,1.86623 3.50234,1.02895 17.12904,7.48507 21,9.94948 20.51424,13.06022 37.77452,37.27511 43.05722,60.40607 11.6058,50.81748 -14.21114,98.68288 -63.39055,117.52806 -3.51868,1.34832 -8.12981,2.51826 -16,4.0595 -4.1301,0.80882 -17.77698,1.44212 -21.33333,0.99001 z"
     id="path4717"
     inkscape:label="right"
     inkscape:connector-curvature="0" />
  <path
     id="path4697"
     style="fill:#737373;fill-opacity:1;stroke-width:0.66666669"
     d="m 115.36026,34.01936 c -0.18407,-0.47968 -0.24965,-4.45468 -0.14574,-8.833333 l 0.18893,-7.9612 h 8.66666 8.66667 l 0.18845,7.905446 c 0.12535,5.258534 -0.0694,8.216127 -0.58163,8.833334 l -0.77008,0.927886 h -7.93929 -7.9393 l -0.33467,-0.872146 z m -35.99209,0.0206 C 79.17975,33.54894 79.11061,29.564653 79.21452,25.186 l 0.18893,-7.961173 h 8.33333 8.33333 v 8.666663 8.666667 l -8.17967,0.187293 -8.17968,0.187287 -0.34259,-0.892767 z m -36.16472,0.05153 c -0.5268,-0.526793 -0.8,-3.34482 -0.8,-8.251706 v -7.4517 l 0.92788,-0.77008 c 0.61721,-0.512234 3.5748,-0.70698 8.83334,-0.581627 l 7.90544,0.188447 0.18845,7.905446 c 0.12535,5.258534 -0.0694,8.216127 -0.58163,8.833334 l -0.77008,0.927886 h -7.4517 c -4.90688,0 -7.72491,-0.273206 -8.2517,-0.8 z"
     inkscape:label="dots"
     inkscape:connector-curvature="0" />
  <path
     id="path4709"
     style="fill:#323232;fill-opacity:1;stroke-width:0.66666669"
     d="m 448.32524,248.26752 -5.23607,-5.32832 -0.17619,-20.85719 -0.1762,-20.85718 -3.33333,-0.33334 -3.33334,-0.33333 -0.21018,-2.18377 -0.21018,-2.18376 3.71018,-5.29482 3.71018,-5.29483 v -8.25142 -8.25141 l 1.16667,-0.98796 c 1.63054,-1.38078 11.04592,-5.88536 12.30143,-5.88536 2.10655,0 2.49568,1.74878 2.68056,12.0466 l 0.18468,10.28673 7,0.33333 7,0.33334 0.19075,6.90266 c 0.24237,8.7703 0.33087,8.66862 -7.75297,8.90728 l -6.43778,0.19006 -0.1779,17.58482 c -0.12284,12.1418 0.051,17.8606 0.56154,18.4758 0.49428,0.59556 2.76365,0.95426 6.84456,1.08184 l 6.10513,0.19087 v 7.33333 7.33334 l -9.58774,0.1855 -9.58774,0.18551 z m -36.05513,-10.17603 c 0.46061,-0.4606 0.8,-2.66666 0.8,-5.2 0,-6.00932 0.0166,-6 -10.66666,-6 -10.68325,0 -10.66667,-0.009 -10.66667,6 0,2.53334 0.33939,4.7394 0.8,5.2 1.11283,1.11283 18.62051,1.11283 19.73333,0 z m -30.71564,10.28526 -5.15102,-5.18142 v -9.60405 -9.60405 l 5.16666,-5.3812 c 7.05558,-7.34854 6.11118,-6.99694 18.86667,-7.02424 7.66438,-0.0164 11.27761,-0.2679 11.83333,-0.82363 1.10552,-1.10552 1.03776,-8.17275 -0.0873,-9.10648 -0.58167,-0.48275 -6.60962,-0.79791 -17.5,-0.91496 l -16.6127,-0.17856 -0.20888,-2.53317 -0.20889,-2.53318 5.15783,-5.30016 5.15783,-5.30016 h 15.06669 15.0667 l 5.15822,5.18865 5.15822,5.18865 -0.17386,28.97802 -0.17386,28.97802 -1.80226,0.20794 -1.80226,0.20796 -5.00096,-3.37462 c -6.12994,-4.13644 -6.02802,-4.13602 -10.06118,-0.0413 l -3.28322,3.33335 h -9.70736 -9.70737 z m -58.38684,0.19283 -4.73867,-4.98858 -0.17942,-31.84475 c -0.0987,-17.51462 -0.0294,-32.33651 0.15391,-32.93755 0.18333,-0.60103 2.47116,-3.37603 5.08408,-6.16667 l 4.75074,-5.07387 h 14.93156 14.93156 l 5.15103,5.18141 5.15103,5.18142 v 2.48525 c 0,1.53173 -0.31973,2.49391 -0.83334,2.50781 -0.45833,0.0124 -7.8406,0.003 -16.40503,-0.0221 -10.85925,-0.0312 -15.85263,0.18847 -16.5,0.72573 l -0.9283,0.77041 v 26.17007 26.17007 l 0.88705,0.73619 c 0.57996,0.48133 6.52297,0.79808 17.16667,0.91497 l 16.27961,0.17877 0.20378,2.4474 0.20377,2.44739 -4.87555,5.05261 -4.87556,5.0526 h -15.41013 -15.41013 z"
     inkscape:label="cat"
     inkscape:connector-curvature="0" />
  <path
     id="path4608"
     style="fill:#323232;fill-opacity:1;stroke-width:0.66666669"
     d="m 448.55556,34.11029 c -0.56115,-0.561166 -0.81878,-3.47814 -0.81878,-9.270506 v -8.4517 l 0.92707,-0.7694 c 0.61945,-0.5141 3.66115,-0.707094 9.16667,-0.581634 l 8.23959,0.187774 v 9.666666 9.666667 l -8.34788,0.185447 -8.34788,0.185453 -0.81879,-0.818787 z m -0.12335,90.83494 c -0.47991,-0.89671 -0.65084,-14.1877 -0.53398,-41.519663 l 0.17188,-40.200743 h 9 9 v 41.333333 41.333333 l -8.46602,0.18634 -8.46602,0.18632 z m -66.23731,-5.29368 -6.45812,-6.57329 V 84.288287 55.498317 l 6.09798,-6.30341 6.09797,-6.303417 h 18.51165 18.51165 l 6.08788,6.486597 6.08789,6.4866 -0.19751,2.68007 -0.19751,2.68007 -20.42628,0.17619 -20.42627,0.17619 -0.74974,0.90338 -0.74974,0.90339 0.17601,21.58709 0.17602,21.587093 20.33333,0.33333 c 11.18334,0.18334 20.70834,0.57604 21.16667,0.87268 0.45833,0.29664 0.83333,1.61366 0.83333,2.92672 v 2.38737 l -6.45812,6.57329 -6.45812,6.57328 h -17.75042 -17.75042 z m -80.71625,2.59522 -3.79442,-3.97806 0.19294,-5.85527 0.19294,-5.85528 20.277,-0.17661 c 13.60328,-0.11848 20.56982,-0.41962 21.16667,-0.91496 l 0.88967,-0.73836 V 94.609867 c 0,-6.98096 -0.24806,-10.36644 -0.8,-10.91838 l -0.8,-0.8 -14.7,0.005 -14.7,0.005 -6.16346,-6.50567 -6.16345,-6.50566 -0.003,-17.92314 -0.003,-17.92313 6.12282,-6.243533 6.12281,-6.243534 h 21.66743 21.66742 l 3.88496,4.166667 3.88495,4.166667 -0.17519,5.333333 -0.1752,5.333333 -20.94332,0.17632 c -14.09644,0.118674 -21.23428,0.4178 -21.83333,0.91496 l -0.88977,0.739314 v 9.451703 c 0,6.46244 0.25301,9.70472 0.8,10.2517 l 0.8,0.8 h 15.00014 15.00016 l 6.1794,6.5 6.17941,6.5 -0.003,18.66667 -0.003,18.666673 -6.23478,6.5 -6.23478,6.5 H 326.5803 305.27293 l -3.79442,-3.97806 z"
     inkscape:label="sci"
     inkscape:connector-curvature="0" />
</svg>
